<svg height="512" viewBox="0 0 57 58" width="512" xmlns="http://www.w3.org/2000/svg"><g id="Page-1" fill="none" fill-rule="evenodd"><g id="028---Gloves" fill-rule="nonzero"><path id="Shape" d="m34.537 58h-13.05c-.7677279-.0008859-1.4671903-.4411586-1.8-1.133l-.487-1.007 6.627-4.428 7.573-2.4 2.939 6.1c.2985706.6197836.2576446 1.3495165-.108355 1.9320287-.3659996.5825121-1.0056944.9360312-1.693645.9359713z" fill="#fdd7ad"/><path id="Shape" d="m55.936 35.494-8.312 8.312c-.7809997.7807639-2.0470003.7807639-2.828 0l-5.036-5.036 4.672-6.67 6.468-4.47 5.036 5.036c.7807639.7809997.7807639 2.0470003 0 2.828z" fill="#fdd7ad"/><path id="Shape" d="m47.99 24.68-4.544 6.544-6.616 4.616c-2.3833033-.368378-4.6883463-1.1322193-6.82-2.26l-.01-12.08c-.0012169-.373091-.0830874-.7415081-.24-1.08-.5026269-1.0447171-1.6602013-1.6038187-2.7909689-1.3480214-1.1307676.2557974-1.9349947 1.2586891-1.9390311 2.4180214l.01 10.25-8.26-17.04c-.2581612-.5377688-.7021462-.9639943-1.25-1.2l-2.8-2.81c-.9720211-.96925974-.9742597-2.54297882-.005-3.51499996.9692598-.97202115 2.5429788-.97425974 3.515-.00500004l-2.92-2.92c-.8403017-.83310883-.9743312-2.14408525-.32-3.13.0924937-.14101015.1997674-.27175.32-.39.464546-.46716403 1.0961789-.72983525 1.755-.72983525s1.290454.26267122 1.755.72983525l3.52 3.52v-.01c-.8312784-.83336472-.9648043-2.13524217-.32-3.12v-.01c.0982367-.13353232.2051332-.2604719.32-.38.4665184-.46727559 1.0997077-.72985203 1.76-.72985203s1.2934816.26257644 1.76.72985203l13.43 13.35-3.4-9.67c-.3804532-1.09312738.0451603-2.30410617 1.0258621-2.91883874.9807017-.61473258 2.2561116-.47000505 3.0741379.34883874.2653079.26071366.4671673.57889882.59.93l5.32 15.15c.8784829 2.5109543 2.26768 4.8126633 4.08 6.76z" fill="#26b99a"/><path id="Shape" d="m31.62 45.28-6.582 4.409-7.628 2.431c-4.1175293-2.2038816-7.42713894-5.660585-9.45-9.87l-6.89-14.32c-.61034589-1.1938063-.20121965-2.656215.94-3.36.59690962-.34359 1.30981907-.423479 1.96797388-.2205321.65815481.2029468 1.20227211.6704493 1.50202612 1.2905321l-2.51-5.22c-.51116039-1.068397-.19727195-2.3490619.75-3.06.13009813-.1017257.27093618-.1889112.42-.26 1.23755051-.5886431 2.71832116-.0712654 3.32 1.16l-1.05-2.19-.03-.05-.77-1.61v-.01c-.44306334-1.0472356-.1126091-2.2616549.8-2.94.12685437-.0984517.26438671-.1823129.41-.25.59384102-.2880207 1.27796896-.3275554 1.90103464-.1098578.62306569.2176977 1.13371069.6746831 1.41896536 1.2698578l2.16 4.48c-.5213334-1.0704815-.2061881-2.3604765.75-3.07.1268544-.0984517.2643867-.1823129.41-.25.5957758-.2809585 1.2780229-.3168662 1.9-.1.0589925.017228.1159809.0406938.17.07.5478538.2360057.9918388.6622312 1.25 1.2l8.26 17.04-.01-10.25c.0040364-1.1593323.8082635-2.162224 1.9390311-2.4180214 1.1307676-.2557973 2.288342.3033043 2.7909689 1.3480214.1569126.3384919.2387831.706909.24 1.08l.01 12.08v3.97c.0000629 2.6598962.5481215 5.2912582 1.61 7.73z" fill="#65ddb9"/><g fill="#46b29d"><path id="Shape" d="m18.53 27.52c-.1329095.0682401-.2806182.102591-.43.1-.3846594-.0010889-.7345973-.2227162-.9-.57l-4.9-10.2c-.5213334-1.0704815-.2061881-2.3604765.75-3.07l5.95 12.4c.1165059.239847.1323974.5162909.0441435.7679085-.088254.2516177-.2733435.4575683-.5141435.5720915z"/><path id="Shape" d="m14.06 29.67c-.1368422.0672443-.2875357.1014929-.44.1-.3846594-.0010889-.7345973-.2227162-.9-.57l-5.26-10.94-1.05-2.19-.03-.05-.77-1.61v-.01c-.44306334-1.0472356-.1126091-2.2616549.8-2.94l8.11 16.87c.2387632.4973121.0338657 1.0941873-.46 1.34z"/><path id="Shape" d="m9.58 31.83c-.13684221.0672443-.2875357.1014929-.44.1-.38465944-.0010889-.73459732-.2227162-.9-.57l-2.76-5.72-2.51-5.22c-.51116039-1.068397-.19727195-2.3490619.75-3.06l6.32 13.13c.2387632.4973121.0338657 1.0941873-.46 1.34z"/></g><path id="Shape" d="m17.366 48.4c-.2063873-.0004241-.407588-.0646966-.576-.184-2.6263554-1.8644527-4.7362826-4.36526-6.132-7.268-.2132518-.4923094-.0000037-1.0651813.4832544-1.298219.483258-.2330378 1.0643052-.0431928 1.3167456.430219 1.2389658 2.6016894 3.1273209 4.8403012 5.483 6.5.3562173.2514169.5084804.7046493.3763101 1.1201396-.1321703.4154904-.5183045.697455-.9543101.6968604z" fill="#fff"/><path id="Shape" d="m29.16 11.65c-.1875741.1889094-.4438082.2935684-.71.29-.2632254.0033976-.5162972-.1014464-.7-.29l-7.4-7.4v-.01c-.8312784-.83336472-.9648043-2.13524217-.32-3.12l9.13 9.12c.3877236.3900375.3877236 1.0199625 0 1.41z" fill="#14a085"/><path id="Shape" d="m25.65 15.16c-.3900375.3877236-1.0199625.3877236-1.41 0l-8-7.99-2.92-2.92c-.8403017-.83310883-.9743312-2.14408525-.32-3.13l12.65 12.63c.3877236.3900375.3877236 1.0199625 0 1.41z" fill="#14a085"/><path id="Shape" d="m34.78 47.05c.0032121.7993012-.451455 1.5298775-1.17 1.88l-.21.1-14.2 6.83-.37.18c-1.0327725.4970562-2.2729436.0627724-2.7699999-.97-.4970563-1.0327725-.0627725-2.2729437.9699999-2.77l.38-.18 14.21-6.84.19-.09c1.0328287-.4960474 2.2722704-.0620191 2.77.97.1335213.277583.2019251.5819796.2.89z" fill="#46b29d"/><path id="Shape" d="m51.68 26c.0029349.552155-.2169938 1.0821471-.61 1.47l-.17.16-11.14 11.14-.29.29c-.5927191.5909256-1.4824262.7679033-2.2561675.4487897-.7737413-.3191137-1.2800135-1.0718342-1.2838325-1.9087897.0017233-.5512295.2209386-1.0795027.61-1.47l11.59-11.59c.8125666-.8101475 2.1274334-.8101475 2.94 0 .3910966.3850364.6109217.9111752.61 1.46z" fill="#14a085"/></g></g></svg>