<svg height="512" viewBox="0 0 64 64" width="512" xmlns="http://www.w3.org/2000/svg"><g id="scan-people-coronavirus-tempurature-covid19"><path d="m49.93 24.63a1.007 1.007 0 0 1 -1.3-.56l-1.26-3.14a1.007 1.007 0 0 1 .56-1.3l2.831-1.341a4 4 0 0 0 -3.175-2.66l-10.586-1.629v8l6.879 1.72a2 2 0 0 1 1.438 1.391l1.683 5.889h8l-2.47-7.41z" fill="#9bc9ff"/><path d="m36.5 36.66c-1.25-3.46-4.49-12.47-4.5-12.66a21 21 0 0 0 -22.11-20.97 20.481 20.481 0 0 0 -6.89 1.596v56.374h17l2-9h7a2.006 2.006 0 0 0 2-2v-12h4.56a1 1 0 0 0 .94-1.34z" fill="#9bc9ff"/><g fill="#1e81ce"><path d="m24.168 26.555a1 1 0 0 0 1.387.277l3-2a1 1 0 0 0 -.108-1.727l-6-3a1 1 0 0 0 -.894 1.79l4.459 2.229-1.567 1.044a1 1 0 0 0 -.277 1.387z"/><path d="m33 23.862a21.806 21.806 0 0 0 -6.85-15.816 21.817 21.817 0 0 0 -16.311-6.016 21.487 21.487 0 0 0 -7.239 1.654 1 1 0 1 0 .773 1.844 19.53 19.53 0 0 1 6.565-1.5 19.863 19.863 0 0 1 14.834 5.472 19.835 19.835 0 0 1 6.228 14.533c.008.223.013.37 4.556 12.967h-4.556a1 1 0 0 0 -1 1v4h-6a1 1 0 0 0 0 2h7a1 1 0 0 0 1-1v-4h3.556a2 2 0 0 0 1.881-2.677c-2.514-6.973-4.187-11.669-4.437-12.461z"/><path d="m31 45a1 1 0 0 0 -1 1v4a1 1 0 0 1 -1 1h-13.343a3.02 3.02 0 0 1 -2.121-.878l-1.829-1.829a1 1 0 0 0 -1.414 1.414l1.829 1.829a4.966 4.966 0 0 0 3.535 1.464h5.1l-1.557 7h-16.226a1 1 0 0 0 0 2h17.026a1 1 0 0 0 .976-.783l1.824-8.217h6.2a3 3 0 0 0 3-3v-4a1 1 0 0 0 -1-1z"/><path d="m57.93 46.63a1 1 0 0 0 -.93-.63h-11a1 1 0 0 1 0-2h1a1 1 0 0 0 0-2h-3a1 1 0 0 1 0-2h3a1 1 0 0 0 0-2h-5a1 1 0 0 1 0-2h5a1 1 0 0 0 0-2h-3a1 1 0 0 1 0-2h11a.983.983 0 0 0 .81-.42 1 1 0 0 0 .14-.9l-1.53-4.57 1.16-.47a1.01 1.01 0 0 1 1.29.53l3.22 7.24a.992.992 0 0 0 .91.59 1.013 1.013 0 0 0 .41-.09.993.993 0 0 0 .5-1.32l-3.21-7.24a2.993 2.993 0 0 0 -3.86-1.56l-1.05.42-2.07-6.21a4.984 4.984 0 0 0 -3.98-3.36l-10.59-1.63a1 1 0 0 0 -1.15.99v8a1 1 0 0 0 .76.97l6.88 1.72a1.017 1.017 0 0 1 .72.7l1.31 4.61h-1.67a2.994 2.994 0 0 0 -2.78 4.12 2.978 2.978 0 0 0 0 5.76 2.975 2.975 0 0 0 2 4 2.994 2.994 0 0 0 2.78 4.12h10.32l3.75 9.37a1 1 0 0 0 .93.63.971.971 0 0 0 .37-.07 1.011 1.011 0 0 0 .56-1.3zm-6.65-23.62-1.72.69-1.26-3.14 1.91-.77zm-7.16-.26-6.12-1.53v-6.05l9.43 1.45a2.966 2.966 0 0 1 2.05 1.31l-1.92.77a2.011 2.011 0 0 0 -1.12 2.6l1.26 3.14a1.989 1.989 0 0 0 1.07 1.1 2.143 2.143 0 0 0 .79.16 2.111 2.111 0 0 0 .74-.14l1.62-.65 1.69 5.09h-5.86l-1.47-5.16a3 3 0 0 0 -2.16-2.09z"/></g></g></svg>